inDegrees=no
num_controls=7
num_derivatives=13
num_iterations=110
num_multipliers=7
num_parameters=0
num_slacks=7
num_states=26
objective=3.979085
objective_accelerations=0.556516
objective_balance=0.089747
objective_effort=0.463463
objective_height=2.827666
objective_ligament=0.041693
solver_duration=1193.149439
status=Solve_Succeeded
success=true
DataType=double
version=3
OpenSimVersion=4.4-2022-07-23-0e9fedc
endheader
time	/jointset/ground_pelvis/pelvis_tilt/value	/jointset/ground_pelvis/pelvis_tx/value	/jointset/ground_pelvis/pelvis_ty/value	/jointset/hip_l/hip_flexion_l/value	/jointset/hip_l/hip_adduction_l/value	/jointset/hip_l/hip_rotation_l/value	/jointset/back/lumbar_extension/value	/jointset/patellofemoral_l/patellar_flexion_l/value	/jointset/knee_l/knee_flexion_l/value	/jointset/knee_l/knee_adduction_l/value	/jointset/knee_l/knee_rotation_l/value	/jointset/ankle_l/ankle_angle_l/value	/jointset/subtalar_l/subtalar_angle_l/value	/jointset/ground_pelvis/pelvis_tilt/speed	/jointset/ground_pelvis/pelvis_tx/speed	/jointset/ground_pelvis/pelvis_ty/speed	/jointset/hip_l/hip_flexion_l/speed	/jointset/hip_l/hip_adduction_l/speed	/jointset/hip_l/hip_rotation_l/speed	/jointset/back/lumbar_extension/speed	/jointset/patellofemoral_l/patellar_flexion_l/speed	/jointset/knee_l/knee_flexion_l/speed	/jointset/knee_l/knee_adduction_l/speed	/jointset/knee_l/knee_rotation_l/speed	/jointset/ankle_l/ankle_angle_l/speed	/jointset/subtalar_l/subtalar_angle_l/speed	/forceset/tau_hip_flexion_l	/forceset/tau_hip_adduction_l	/forceset/tau_hip_rotation_l	/forceset/tau_knee_flexion_l	/forceset/tau_ankle_angle_l	/forceset/tau_subtalar_angle_l	/forceset/tau_lumbar_extension	lambda_cid13_p0	lambda_cid13_p1	lambda_cid13_p2	lambda_cid13_p3	lambda_cid13_p4	lambda_cid13_p5	lambda_cid14_p0	/jointset/ground_pelvis/pelvis_tilt/accel	/jointset/ground_pelvis/pelvis_tx/accel	/jointset/ground_pelvis/pelvis_ty/accel	/jointset/hip_l/hip_flexion_l/accel	/jointset/hip_l/hip_adduction_l/accel	/jointset/hip_l/hip_rotation_l/accel	/jointset/back/lumbar_extension/accel	/jointset/patellofemoral_l/patellar_flexion_l/accel	/jointset/knee_l/knee_flexion_l/accel	/jointset/knee_l/knee_adduction_l/accel	/jointset/knee_l/knee_rotation_l/accel	/jointset/ankle_l/ankle_angle_l/accel	/jointset/subtalar_l/subtalar_angle_l/accel	gamma_cid13_p0	gamma_cid13_p1	gamma_cid13_p2	gamma_cid13_p3	gamma_cid13_p4	gamma_cid13_p5	gamma_cid14_p0
0	-0.1599445661951375	0.0584919322735642	0.897991321612865	0.3774920279260975	-0.2592455432728481	-0.2711251850292932	-0.0126506700172305	0.03223623128431557	0.03223623128433527	-0.1745329069802411	0.1727665907584932	-0.04231376238535053	-0.00939138439534961	0	0	0	0	0	0	0	0	0	0	0	0	0	0.1586848704396996	-0.09822966200512938	-0.05565384547728047	-0.3386128242109273	0.3810463713964752	-0.04618346322852317	-0.09702688083509847	81.07141080919564	0.2843987876045007	5.92372922355433	-35.72238043562356	-585.414586109192	-79.01007693584747	-39.02049791720268	-3.156706263789109	-1.525872062291056	-1.07754439569701	13.64329448674939	-0.5783153722024489	4.699950667932669	-6.005860673452724	14.1157888764961	14.11578887649589	2.791369033654913	0.1732941919502706	4.610507629800606	0.4259126849262417	-3.358374000139365e-08	6.056641327621439e-07	-3.278013555803528e-09	5.149440056951936e-08	9.28919475318978e-08	1.080011632679311e-07	5.939791884121742e-08
0.01	-0.1600954434738481	0.05841613733210877	0.8979387724166118	0.3781579990871307	-0.2592735855974305	-0.2708882895283846	-0.01295232355699087	0.03292722340090094	0.03292722340080087	-0.1743949406884386	0.1727684699880628	-0.04208868927454778	-0.009370507381746532	-0.02998648986094273	-0.01514104509306331	-0.01048222981722409	0.1326066377038232	-0.005552510710249434	0.04708667932217439	-0.0599402136480354	0.1375809404146349	0.1375809404146352	0.02748467260259594	0.0004240380048307066	0.04474836681181863	0.00417025084028994	0.150380413114056	-0.1067134621431746	-0.05362738592369775	-0.3264710806967843	0.3605767634285187	-0.03009386726257467	-0.09076400829001494	75.04652229668982	-5.39676323529988	6.542028961219478	-31.77837024079209	-586.4848436759181	-89.5663855818445	-39.03976117232935	-2.891284552203014	-1.505518953294332	-1.029402281310924	12.98120111481406	-0.5354267107852846	4.66918939001603	-5.929527565083636	13.48661231107683	13.48661231107718	2.71083049025364	-0.0157740196090735	4.367067706114369	0.4117143571280085	-5.798214717302981e-08	7.145416156892574e-07	6.536982536209438e-08	9.504266024372192e-08	-1.16948495034408e-07	1.106973742474924e-07	6.813302118480232e-08
0.02	-0.1605405184921549	0.05818947229562812	0.8977822329208699	0.3801324071657146	-0.2593554945871873	-0.2701892946691218	-0.01384166440416229	0.03497549805890202	0.03497549805890392	-0.1739853648475059	0.1727760430730327	-0.04142411919577844	-0.009308101245031732	-0.05883954792012841	-0.0301740190050473	-0.02079805989770309	0.2616873835122898	-0.01077333303447481	0.09241987167057961	-0.1175374614803004	0.2714565083144449	0.2714565083144458	0.05432190987286174	0.001138771035297137	0.08789939359331156	0.008305824622484456	0.1420759557882025	-0.1151972622811743	-0.05160092636896044	-0.3143293371829542	0.3401071554605131	-0.01400427129660789	-0.08450113574508748	69.14467277357937	-11.08998697495471	7.151431464878013	-28.12660377038853	-585.7622743724703	-99.9088848246499	-39.09669498005834	-2.930019903438018	-1.504257826074857	-1.044264448347984	12.93811610767794	-0.5119776949976945	4.349253273178855	-5.537267510298756	13.37471437353103	13.37471437353088	2.661881967188746	0.231433197077378	4.291039623735822	0.4189772733071818	-8.238055434466599e-08	8.234190986163708e-07	1.340176642799923e-07	1.385909199179245e-07	-3.267889376007138e-07	1.133935852270536e-07	7.686812352838721e-08
0.03	-0.161269007341368	0.05781385936769923	0.8975229924052511	0.3833798949107887	-0.2594878249220598	-0.2690464393947125	-0.01529454466611314	0.03834461845516649	0.03834461845521284	-0.1733110441521902	0.1727927002670814	-0.04033479865357801	-0.009204137297027074	-0.08668595934066546	-0.0448447208753608	-0.0310513229963091	0.3871470811348212	-0.01562981829811962	0.1358876269494164	-0.1726164705163681	0.4017605880714995	0.4017605880715048	0.08039060992562834	0.002181896347741267	0.1298081551184129	0.01251007090201422	0.1358180337687663	-0.1077580619929085	-0.05047436010738163	-0.3081525255604265	0.3329794384931392	-0.0168264974144603	-0.07941020087904804	66.78277884860287	-9.578865801516113	7.056860261875445	-27.06958229423711	-585.4458279788134	-95.68541493641519	-39.18922001235433	-2.686114414911949	-1.432871616617771	-1.016115411766935	12.25042424681104	-0.4631862695212618	4.306012678898326	-5.429899541630335	12.76719193691821	12.767191936919	2.556771492636562	0.03916337199935638	4.117320784947779	0.4244698393925236	-1.036011518174235e-07	7.538111215826456e-07	2.182953716284753e-07	1.64415136281259e-07	-4.969105214649675e-07	5.235896758544814e-08	6.428817138537368e-08
